<svg width="167" height="202" viewBox="0 0 167 202" fill="none" xmlns="http://www.w3.org/2000/svg">
<path d="M17.7273 30.9091H37.3636L27.6364 89.4545H28.4545L78.3636 30.9091H95.5909L80.1364 124H60.4545L70.1818 65.4091H69.5L19.3182 124H2.27273L17.7273 30.9091Z" fill="url(#paint0_linear_352_15)"/>
<path d="M17.7273 30.9091V29.9091H16.8796L16.7408 30.7453L17.7273 30.9091ZM37.3636 30.9091L38.3501 31.073L38.5435 29.9091H37.3636V30.9091ZM27.6364 89.4545L26.6499 89.2906L26.4565 90.4545H27.6364V89.4545ZM28.4545 89.4545V90.4545H28.9161L29.2156 90.1033L28.4545 89.4545ZM78.3636 30.9091V29.9091H77.9021L77.6026 30.2603L78.3636 30.9091ZM95.5909 30.9091L96.5774 31.0729L96.7706 29.9091H95.5909V30.9091ZM80.1364 124V125H80.984L81.1229 124.164L80.1364 124ZM60.4545 124L59.4681 123.836L59.2748 125H60.4545V124ZM70.1818 65.4091L71.1683 65.5729L71.3615 64.4091H70.1818V65.4091ZM69.5 65.4091V64.4091H69.0398L68.7405 64.7586L69.5 65.4091ZM19.3182 124V125H19.7783L20.0777 124.651L19.3182 124ZM2.27273 124L1.28623 123.836L1.09302 125H2.27273V124ZM17.7273 31.9091H37.3636V29.9091H17.7273V31.9091ZM36.3772 30.7452L26.6499 89.2906L28.6228 89.6184L38.3501 31.073L36.3772 30.7452ZM27.6364 90.4545H28.4545V88.4545H27.6364V90.4545ZM29.2156 90.1033L79.1246 31.5578L77.6026 30.2603L27.6935 88.8058L29.2156 90.1033ZM78.3636 31.9091H95.5909V29.9091H78.3636V31.9091ZM94.6044 30.7453L79.1499 123.836L81.1229 124.164L96.5774 31.0729L94.6044 30.7453ZM80.1364 123H60.4545V125H80.1364V123ZM61.441 124.164L71.1683 65.5729L69.1953 65.2453L59.4681 123.836L61.441 124.164ZM70.1818 64.4091H69.5V66.4091H70.1818V64.4091ZM68.7405 64.7586L18.5587 123.349L20.0777 124.651L70.2595 66.0596L68.7405 64.7586ZM19.3182 123H2.27273V125H19.3182V123ZM3.25923 124.164L18.7138 31.0729L16.7408 30.7453L1.28623 123.836L3.25923 124.164Z" fill="black"/>
<path d="M166.5 77.9091L163.773 94.1364H121.682L108.955 171H89.2727L104.727 77.9091H166.5Z" fill="url(#paint1_linear_352_15)"/>
<path d="M166.5 77.9091L167.486 78.0748L167.682 76.9091H166.5V77.9091ZM163.773 94.1364V95.1364H164.619L164.759 94.3021L163.773 94.1364ZM121.682 94.1364V93.1364H120.834L120.695 93.973L121.682 94.1364ZM108.955 171V172H109.803L109.941 171.163L108.955 171ZM89.2727 171L88.2862 170.836L88.093 172H89.2727V171ZM104.727 77.9091V76.9091H103.88L103.741 77.7453L104.727 77.9091ZM165.514 77.7433L162.787 93.9706L164.759 94.3021L167.486 78.0748L165.514 77.7433ZM163.773 93.1364H121.682V95.1364H163.773V93.1364ZM120.695 93.973L107.968 170.837L109.941 171.163L122.668 94.2997L120.695 93.973ZM108.955 170H89.2727V172H108.955V170ZM90.2592 171.164L105.714 78.0729L103.741 77.7453L88.2862 170.836L90.2592 171.164ZM104.727 78.9091H166.5V76.9091H104.727V78.9091Z" fill="black"/>
<defs>
<linearGradient id="paint0_linear_352_15" x1="-27.5" y1="37.5" x2="46.5" y2="132.5" gradientUnits="userSpaceOnUse">
<stop stop-color="#5F897C"/>
<stop offset="1" stop-color="#CFE5D9"/>
</linearGradient>
<linearGradient id="paint1_linear_352_15" x1="220.125" y1="154" x2="137.611" y2="218.717" gradientUnits="userSpaceOnUse">
<stop stop-color="#59776C"/>
<stop offset="1" stop-color="#B2B5A2"/>
</linearGradient>
</defs>
</svg>
